<?xml version="1.0" standalone="no"?>
<!DOCTYPE svg PUBLIC "-//W3C//DTD SVG 20010904//EN"
 "http://www.w3.org/TR/2001/REC-SVG-20010904/DTD/svg10.dtd">
<svg version="1.0" xmlns="http://www.w3.org/2000/svg"
 width="8000.000000pt" height="342.000000pt" viewBox="0 0 8000.000000 342.000000"
 preserveAspectRatio="xMidYMid meet">
<metadata>
Created by potrace 1.16, written by Peter Selinger 2001-2019
</metadata>
<g transform="translate(0.000000,342.000000) scale(0.100000,-0.100000)"
fill="#000000" stroke="none">
<path d="M9330 3023 l0 -398 117 2 c355 8 923 7 923 0 0 -5 87 -7 193 -5 105
1 464 0 797 -4 333 -4 4978 -7 10323 -8 8685 0 9717 -2 9717 -15 0 -11 7 -14
24 -9 21 5 25 1 31 -26 4 -19 3 -36 -4 -43 -18 -18 -13 -37 9 -37 17 0 20 -7
20 -40 0 -33 3 -40 19 -40 13 0 21 -8 23 -22 3 -23 6 -23 165 -26 l161 -2 7
-40 c5 -30 11 -40 26 -40 16 0 19 -7 19 -40 0 -33 3 -40 20 -40 17 0 20 -7 20
-40 0 -33 3 -40 20 -40 17 0 20 -7 20 -41 0 -32 4 -42 20 -46 15 -4 20 -14 20
-39 0 -27 5 -36 25 -44 21 -8 24 -14 18 -40 -5 -26 -2 -32 16 -37 19 -5 25
-15 22 -35 -2 -19 20 -58 34 -58 9 0 15 -9 15 -25 0 -16 6 -25 16 -25 10 0 14
-6 10 -15 -3 -8 -1 -15 4 -15 6 0 10 -11 10 -25 0 -15 6 -25 14 -25 14 0 26
-29 26 -67 0 -13 5 -22 12 -20 7 1 17 -16 23 -40 9 -38 28 -48 31 -15 3 34 4
37 13 23 5 -8 6 -22 3 -30 -9 -20 -9 -42 1 -59 17 -25 -4 -33 -37 -13 -18 11
-37 17 -42 13 -5 -5 -47 -5 -94 0 -123 12 -133 12 -151 4 -10 -4 -23 -1 -32 8
-9 9 -20 16 -26 16 -6 0 -11 9 -11 20 0 25 -45 28 -54 4 -5 -12 -16 -15 -41
-12 -19 2 -35 0 -35 -4 0 -4 -9 -8 -20 -8 -13 0 -20 7 -20 20 0 19 -7 20 -205
20 -198 0 -205 -1 -205 -20 0 -15 -7 -20 -25 -20 -18 0 -25 5 -25 20 0 19 -7
20 -100 20 -93 0 -100 -1 -100 -20 0 -19 7 -20 100 -20 93 0 100 -1 100 -20 0
-18 -7 -20 -60 -20 -57 0 -60 -1 -60 -25 0 -24 2 -25 63 -25 35 0 68 5 75 12
9 9 17 9 35 -1 18 -10 129 -12 488 -9 255 2 470 7 477 11 7 5 226 8 486 7 417
-1 474 1 479 15 9 22 162 22 171 0 8 -21 82 -21 90 0 7 20 62 20 70 0 8 -21
86 -21 86 0 0 21 78 21 86 0 8 -20 60 -20 68 0 7 19 56 19 82 0 29 -22 496
-22 514 0 16 19 44 19 60 0 16 -19 29 -19 70 1 25 13 48 15 98 11 36 -4 70
-11 76 -17 13 -13 91 -13 115 -1 13 7 560 25 666 22 11 -1 79 -3 150 -5 72 -3
150 -5 175 -4 881 7 1864 5 1904 -4 32 -7 44 -13 35 -18 -8 -4 -232 -10 -498
-13 -435 -5 -485 -7 -494 -22 -6 -12 -21 -16 -50 -15 -69 3 -153 -1 -139 -7
23 -9 12 -23 -19 -23 -24 0 -30 4 -25 15 5 13 -10 15 -98 15 -95 0 -104 -2
-109 -20 -4 -14 -14 -20 -35 -20 -29 0 -58 21 -45 33 3 4 -45 7 -108 6 -63 0
-108 -3 -101 -6 17 -7 15 -23 -3 -23 -8 0 -15 7 -15 15 0 12 -16 15 -83 15
-71 0 -84 -3 -95 -20 -7 -11 -21 -20 -31 -20 -10 0 -24 -7 -31 -15 -14 -17
-95 -21 -105 -6 -3 6 10 13 29 16 19 4 42 15 51 25 16 18 11 18 -157 13 -119
-4 -175 -10 -180 -18 -9 -16 -181 -12 -186 4 -5 16 -179 15 -185 -1 -4 -10 -7
-10 -18 -1 -19 19 -279 18 -279 0 0 -7 6 -19 13 -26 19 -20 -26 -46 -74 -42
-57 4 -79 -6 -79 -35 0 -14 5 -34 10 -45 10 -18 7 -19 -40 -19 -45 0 -52 3
-60 26 -6 14 -10 34 -10 44 0 25 56 56 120 64 111 15 122 46 16 46 -114 0
-136 -7 -136 -41 0 -16 -4 -29 -8 -29 -12 0 -42 34 -42 48 0 7 -17 12 -42 12
-43 -1 -43 -1 -22 -18 17 -14 22 -32 26 -85 l4 -67 -111 -2 c-114 -1 -128 -2
-207 -14 -26 -3 -68 -3 -93 0 -44 7 -46 9 -41 34 3 15 8 47 12 70 l6 44 -118
-3 c-117 -4 -119 -3 -122 19 -3 18 -10 22 -43 22 -27 0 -39 -4 -39 -14 0 -8
-9 -17 -19 -21 -23 -7 -35 -37 -26 -65 5 -15 15 -20 41 -20 40 0 52 19 36 55
-9 19 -8 23 6 20 9 -2 23 -4 30 -4 6 -1 12 -13 12 -28 0 -50 15 -59 44 -29 33
32 43 33 51 4 4 -13 16 -30 28 -39 12 -10 18 -23 14 -33 -9 -24 -32 -19 -45 9
-17 37 -65 34 -103 -6 -34 -36 -35 -45 -10 -58 13 -7 24 -6 37 4 11 8 33 15
51 15 27 0 33 -5 45 -36 12 -34 15 -35 48 -30 45 8 46 8 105 -2 28 -4 70 -4
95 -1 34 5 54 2 83 -13 30 -15 50 -18 90 -13 45 5 56 3 84 -18 28 -20 41 -23
83 -19 29 3 63 -1 81 -8 44 -19 149 -20 177 -3 21 13 26 13 42 -2 14 -13 42
-17 132 -18 112 -2 113 -2 116 -27 6 -38 22 -52 53 -45 35 8 46 -10 23 -36
-16 -18 -16 -20 -1 -37 10 -10 17 -24 17 -30 0 -19 -28 -14 -40 8 -6 12 -21
20 -36 20 -14 0 -34 5 -46 11 l-20 11 21 14 c64 45 -8 76 -189 81 -74 2 -202
6 -284 9 -96 2 -152 8 -157 15 -19 31 -89 1 -89 -38 0 -7 -4 -13 -9 -13 -5 0
-11 22 -15 50 -8 57 -15 65 -42 45 -10 -8 -31 -15 -45 -15 -14 0 -34 -8 -45
-19 -19 -18 -20 -17 -58 16 -36 33 -41 34 -85 28 -25 -4 -54 -11 -63 -16 -9
-5 -32 -9 -51 -9 -26 0 -36 5 -40 20 -7 27 -47 27 -47 1 0 -41 -54 -38 -64 3
-7 30 -45 36 -121 23 -45 -9 -58 -8 -72 5 -10 9 -32 14 -51 13 -25 -2 -36 2
-49 21 l-16 25 -22 -21 c-13 -12 -35 -20 -56 -20 -19 0 -44 -7 -55 -15 -10 -8
-31 -15 -46 -15 -14 0 -33 -3 -42 -6 -26 -10 -17 -104 10 -104 8 0 14 -4 14
-10 0 -16 -19 -12 -58 15 -36 25 -92 34 -92 15 0 -5 -10 -19 -22 -30 -19 -18
-20 -22 -8 -30 20 -13 26 -12 40 5 15 18 57 20 63 2 4 -12 30 -16 112 -19 22
-1 69 8 104 19 54 16 66 24 74 47 12 37 0 48 -62 54 -51 5 -82 24 -62 37 22
13 58 15 128 9 l73 -6 12 -42 c15 -53 15 -53 71 -61 47 -7 47 -7 53 24 8 41
18 46 49 25 42 -27 30 -57 -25 -66 -46 -7 -119 -1 -155 12 -17 6 -21 4 -23
-15 -3 -37 30 -58 80 -51 91 13 105 14 168 18 64 3 65 3 68 -24 3 -28 3 -28
-55 -28 -81 0 -105 -28 -63 -70 28 -28 105 -28 120 -1 5 11 10 29 10 40 0 16
8 22 40 27 40 7 50 20 28 42 -19 19 -3 24 42 12 26 -7 44 -18 47 -30 5 -19 48
-32 80 -24 10 3 24 19 31 36 10 27 14 30 39 23 68 -17 73 -55 8 -55 -45 0 -45
0 -45 -35 0 -21 6 -37 17 -43 24 -14 71 5 79 31 l7 22 8 -22 c12 -34 39 -43
77 -27 28 11 33 18 30 41 -2 22 -10 30 -35 38 -44 12 -41 27 7 49 45 20 70 11
70 -25 0 -11 7 -19 15 -19 8 0 15 6 15 13 0 6 11 22 25 35 23 22 32 23 122 22
54 -2 119 1 144 5 42 7 48 5 59 -15 11 -20 18 -22 67 -18 51 5 150 -16 169
-35 13 -13 -51 -20 -134 -14 -64 5 -90 11 -106 26 -19 17 -25 18 -66 5 -34
-10 -61 -11 -117 -3 -68 9 -77 8 -118 -12 -36 -18 -45 -28 -45 -48 0 -14 4
-31 8 -37 5 -7 64 -11 177 -11 94 0 238 -5 320 -12 83 -7 287 -13 455 -13 301
-1 306 -1 357 -25 29 -13 55 -28 58 -34 10 -15 72 -11 79 6 7 20 33 19 45 -2
9 -16 10 -16 11 5 0 19 5 22 40 22 35 0 40 -3 40 -22 1 -21 2 -21 11 -5 12 21
57 23 65 2 9 -23 44 -19 44 5 0 17 7 20 45 20 38 0 45 -3 45 -20 0 -24 16 -26
36 -5 19 19 29 19 48 0 8 -8 19 -15 25 -15 6 0 11 -4 11 -8 0 -4 16 -6 35 -4
29 4 36 0 44 -19 10 -24 10 -24 10 4 1 24 5 27 36 27 27 0 42 8 73 42 45 48
66 45 56 -8 l-6 -34 61 0 c60 0 61 -1 62 -27 0 -27 1 -27 9 -5 12 28 27 28 33
0 4 -20 4 -19 6 5 1 25 4 27 41 27 36 0 40 -2 40 -25 0 -24 2 -25 65 -25 63 0
65 1 65 25 0 23 4 25 40 25 36 0 40 -2 40 -25 0 -25 1 -25 80 -25 79 0 80 0
80 25 0 20 5 25 25 25 20 0 25 -5 25 -25 l0 -25 205 0 205 0 0 25 c0 20 5 25
25 25 20 0 25 -5 25 -25 l0 -25 580 0 580 0 0 25 c0 20 5 25 25 25 20 0 25 -5
25 -25 l0 -25 101 0 c98 0 100 0 97 23 -2 15 -11 23 -28 25 -27 4 -50 19 -50
33 0 5 21 9 46 9 37 0 47 -4 51 -20 3 -11 12 -20 19 -20 8 0 14 -10 14 -25 l0
-25 185 0 c178 0 185 1 185 20 0 17 7 20 40 20 33 0 40 -3 40 -20 0 -20 7 -20
429 -20 372 0 430 2 435 15 7 19 26 19 26 0 0 -8 7 -15 15 -15 8 0 15 9 15 20
0 13 7 20 20 20 13 0 20 -7 20 -20 0 -19 7 -20 105 -20 96 0 105 2 105 19 0
13 10 20 31 25 47 9 49 8 49 -19 0 -24 2 -25 65 -25 63 0 65 1 65 25 0 18 5
25 20 25 15 0 20 -7 20 -25 0 -18 5 -25 20 -25 15 0 20 7 20 25 0 25 1 25 85
25 84 0 85 0 85 -25 0 -18 5 -25 20 -25 15 0 20 7 20 25 0 18 5 25 20 25 13 0
20 7 20 20 0 15 7 20 25 20 18 0 25 -5 25 -20 0 -18 7 -20 80 -20 73 0 80 2
80 20 0 15 7 20 29 20 16 0 31 6 35 15 3 10 19 15 42 15 26 0 43 7 60 25 14
15 29 22 38 19 24 -9 19 -33 -9 -44 -38 -14 -30 -30 15 -30 36 0 40 3 40 24 0
27 39 46 95 46 18 0 38 7 45 15 9 11 23 13 52 9 24 -4 48 -2 62 6 19 10 29 9
56 -5 42 -22 130 -13 155 15 25 28 87 24 116 -6 17 -19 33 -24 69 -24 42 0 50
4 79 40 32 40 61 52 61 25 0 -20 32 -35 75 -35 46 0 75 15 75 40 0 29 -36 43
-94 36 -44 -5 -53 -3 -64 14 -9 15 -23 20 -55 20 -34 0 -48 6 -65 25 -12 13
-18 27 -13 29 11 7 68 -10 98 -29 13 -9 32 -14 41 -11 9 3 44 7 77 10 119 11
159 18 179 28 33 18 116 100 116 115 0 27 -83 122 -112 128 -37 9 -36 35 3 64
16 12 34 32 38 44 8 20 5 22 -43 27 -37 4 -56 1 -69 -10 -17 -13 -20 -13 -32
3 -10 15 -31 17 -146 18 -74 1 -147 5 -164 8 -27 7 -24 9 30 17 l60 9 -50 5
c-31 3 20 8 129 12 138 6 183 11 196 23 22 20 86 20 94 0 8 -22 151 -22 160 0
8 23 1007 23 1026 0 11 -13 154 -15 1175 -15 1035 0 1164 2 1175 15 12 14 52
15 319 11 168 -3 357 -8 420 -11 75 -4 117 -3 124 4 12 12 80 15 91 4 4 -5 51
-8 104 -8 54 0 114 -4 134 -9 74 -17 128 19 128 86 0 21 5 38 10 38 6 0 10 -5
10 -11 0 -6 8 -3 18 7 16 17 17 16 20 -21 3 -31 -2 -43 -22 -62 -31 -29 -33
-49 -6 -65 11 -7 20 -21 20 -31 0 -15 7 -18 37 -15 30 2 41 9 51 31 l13 27
377 -2 377 -3 3 -22 c3 -24 41 -41 61 -28 6 3 26 3 45 -1 31 -5 34 -8 23 -25
-17 -27 4 -39 71 -39 39 0 54 4 59 16 3 8 1 20 -4 25 -14 14 18 78 39 79 11 0
18 -9 20 -27 3 -24 9 -29 43 -34 48 -8 73 3 81 36 9 36 58 35 76 -1 12 -23 20
-26 85 -29 65 -4 72 -2 78 15 10 30 -2 40 -49 40 -52 0 -102 16 -110 36 -9 23
-60 17 -90 -11 -28 -26 -79 -34 -91 -15 -4 6 13 19 37 30 49 22 48 22 -86 24
-73 1 -91 4 -100 19 -19 30 10 38 114 32 130 -7 243 -7 316 1 49 5 62 3 67 -9
7 -20 -28 -51 -48 -43 -9 3 -35 3 -57 0 l-40 -7 33 -14 c56 -24 279 -20 279 5
0 4 -21 14 -48 22 -29 9 -48 22 -50 33 -3 14 4 17 42 17 25 0 56 -5 69 -11 18
-8 36 -6 79 8 64 22 138 20 138 -4 0 -11 -7 -14 -21 -10 -13 4 -29 -2 -42 -14
-11 -10 -35 -22 -54 -25 -35 -7 -43 -18 -18 -28 9 -3 76 -5 149 -5 77 0 150
-4 173 -11 42 -13 235 -9 398 8 85 9 114 1 81 -23 -14 -11 -75 -14 -282 -14
-189 -1 -269 -4 -283 -13 -15 -9 -25 -9 -43 -1 -28 14 -133 25 -245 26 -150 0
-179 -6 -168 -36 8 -20 55 -30 105 -22 21 4 48 4 60 0 18 -6 18 -8 5 -21 -8
-8 -11 -22 -8 -31 5 -13 21 -15 116 -10 86 4 113 8 122 21 7 9 24 16 39 16 19
0 26 5 26 20 0 23 1 24 52 8 44 -13 34 -28 -20 -28 -30 0 -33 -3 -30 -26 4
-38 32 -53 56 -31 15 14 39 17 125 17 111 0 131 8 103 39 -9 10 -16 20 -16 23
0 14 72 18 108 6 35 -11 38 -14 28 -30 -19 -31 10 -38 175 -38 143 0 157 -2
174 -20 23 -25 41 -25 57 0 11 17 24 20 93 20 74 0 105 9 105 31 0 13 -88 29
-112 20 -13 -4 -28 -6 -34 -4 -7 2 -27 -5 -45 -16 -32 -20 -33 -20 -70 0 -21
10 -42 19 -46 18 -5 -1 -44 -1 -88 0 -57 1 -75 4 -63 11 18 11 40 13 113 8 39
-3 55 0 73 16 22 20 23 20 54 2 53 -32 126 -23 203 24 72 44 124 52 163 25 12
-9 40 -15 64 -15 24 1 53 -2 66 -5 19 -6 24 -2 33 24 14 40 34 40 48 0 11 -33
31 -31 31 4 0 27 -53 55 -73 38 -16 -13 -68 -18 -84 -8 -6 4 -23 0 -39 -8 -35
-18 -49 -10 -31 18 8 12 20 32 28 45 14 22 18 22 129 17 63 -2 141 0 174 6 62
11 82 5 53 -15 -23 -18 -22 -33 5 -42 14 -4 25 -1 32 8 6 7 33 27 60 42 l50
29 170 -8 c94 -4 183 -7 198 -7 31 1 46 -13 23 -22 -8 -3 -15 -9 -15 -13 0 -9
59 -38 64 -32 2 2 11 19 20 36 18 36 53 50 83 35 18 -10 389 -8 507 3 27 2 58
-1 69 -6 14 -8 23 -7 36 5 22 20 35 20 55 1 12 -12 20 -14 36 -5 14 8 26 8 41
0 16 -9 24 -8 37 3 29 25 59 29 93 12 30 -16 34 -16 71 1 36 16 43 16 86 2 40
-12 52 -12 77 -1 27 12 188 17 370 12 28 -1 75 0 105 0 181 6 644 5 653 -1 9
-5 7 -15 -5 -36 -20 -33 -14 -46 25 -56 27 -6 38 -25 15 -27 -59 -4 -133 5
-145 17 -20 20 -36 17 -62 -10 -24 -26 -23 -25 -246 -39 -27 -2 -61 -9 -73
-16 -16 -8 -40 -10 -71 -6 -38 5 -54 2 -84 -15 -33 -20 -46 -21 -119 -15 -77
6 -87 5 -131 -19 -33 -18 -64 -26 -96 -26 -27 0 -68 -7 -91 -15 -25 -9 -77
-15 -126 -15 -85 0 -147 -18 -158 -47 -4 -10 9 -13 59 -13 61 0 65 -2 65 -22
1 -21 2 -21 11 -5 13 22 55 22 68 0 9 -16 10 -16 11 5 0 20 5 22 51 22 31 0
56 6 65 15 20 20 63 19 85 -1 19 -17 24 -16 74 14 24 15 44 18 103 14 68 -4
72 -4 72 17 0 20 5 21 85 21 78 0 85 2 85 20 0 13 7 20 20 20 13 0 20 -7 20
-20 0 -17 7 -20 40 -20 33 0 40 3 40 20 0 18 7 19 141 18 133 -1 141 -2 149
-22 9 -21 9 -21 9 2 1 15 7 22 21 22 15 0 20 7 20 25 0 18 5 25 20 25 11 0 20
-4 20 -9 0 -4 18 -3 40 2 28 8 40 17 40 29 0 11 7 18 20 18 13 0 20 -7 20 -20
0 -15 7 -20 25 -20 18 0 25 5 25 20 0 13 7 20 20 20 13 0 20 -7 20 -20 0 -15
7 -20 25 -20 20 0 25 5 25 26 0 40 18 18 26 -31 l6 -45 44 0 c40 0 44 2 44 25
0 23 -4 25 -45 25 l-45 0 0 40 c0 40 0 40 39 40 33 0 40 -4 43 -23 2 -14 11
-23 26 -25 18 -3 22 1 22 22 0 19 -5 26 -20 26 -15 0 -20 7 -20 24 0 15 -7 27
-17 29 -10 3 -42 11 -70 18 -66 16 -70 33 -5 25 26 -4 82 -8 124 -9 43 -1 78
-5 78 -8 0 -3 11 -4 25 -1 14 2 25 10 25 17 0 7 3 25 6 41 l5 29 -187 0 c-136
0 -188 3 -191 12 -3 7 -11 9 -20 6 -8 -3 -19 0 -24 8 -6 11 -9 8 -9 -8 0 -20
-5 -23 -40 -23 -31 0 -40 4 -40 18 0 12 -3 13 -8 5 -5 -8 -44 -15 -100 -19
l-92 -7 0 24 c0 16 -3 20 -8 11 -5 -7 -19 -15 -32 -17 -42 -8 -320 -14 -324
-6 -2 3 -53 3 -113 -1 -59 -5 -118 -6 -130 -3 -33 8 -28 34 7 42 27 5 50 28
50 48 0 4 -14 5 -32 3 -17 -3 -47 -2 -65 2 -18 5 -35 4 -38 0 -3 -5 -20 -6
-39 -3 -19 3 -36 1 -40 -6 -4 -6 -29 -11 -56 -11 -49 0 -73 -13 -44 -24 9 -3
25 -6 37 -6 12 0 29 -5 37 -10 13 -9 12 -13 -5 -26 -15 -11 -33 -14 -70 -10
-27 3 -78 1 -111 -3 -35 -5 -108 -5 -170 0 -71 5 -112 5 -120 -2 -16 -13 -304
-1 -322 14 -7 5 -11 19 -10 30 2 11 -3 22 -9 24 -8 3 -13 -4 -13 -16 0 -35
-66 -54 -108 -32 -10 5 -75 5 -152 0 -83 -5 -139 -4 -146 2 -6 5 -31 11 -55
13 -24 2 -80 9 -124 15 -44 6 -89 12 -100 13 -16 2 -19 -2 -17 -19 4 -27 -16
-30 -58 -8 -22 11 -56 15 -132 13 -95 -3 -103 -5 -114 -26 -17 -34 -19 -35
-58 -14 -29 16 -58 20 -134 21 -53 1 -133 6 -178 12 -44 6 -148 8 -232 6 -123
-4 -154 -2 -163 10 -16 19 -2 31 41 35 27 2 36 8 38 25 3 21 3 21 -203 20
-192 -2 -208 -3 -221 -21 -8 -11 -14 -27 -14 -37 0 -38 -58 -30 -80 11 -13 24
-54 26 -72 4 -36 -44 -50 -54 -74 -54 -33 0 -64 17 -64 35 0 13 -28 35 -44 35
-3 0 -6 -11 -6 -24 0 -41 -21 -48 -107 -39 -70 7 -78 10 -81 30 -3 18 2 23 20
23 34 0 50 14 46 41 -3 22 -7 24 -68 24 l-65 0 3 -32 c2 -27 -2 -34 -23 -39
-13 -3 -29 -12 -36 -20 -18 -22 -76 -18 -82 5 -6 25 6 43 24 36 8 -3 27 4 44
15 27 18 28 20 10 27 -11 4 -36 6 -55 5 -171 -11 -288 -9 -328 6 -32 11 -46
12 -51 4 -4 -6 -22 -12 -40 -14 -55 -4 -44 -14 29 -27 61 -11 71 -16 76 -38 4
-13 2 -35 -5 -49 -10 -23 -9 -24 27 -26 20 -1 53 -1 73 0 22 1 41 -4 49 -13
21 -25 -29 -35 -173 -35 -150 0 -168 6 -147 44 7 14 11 29 7 32 -3 3 -41 2
-84 -2 -45 -5 -65 -10 -47 -12 33 -3 73 -37 60 -50 -12 -11 -249 -14 -266 -3
-12 8 -12 13 5 31 13 14 15 24 8 31 -10 10 -81 15 -153 11 -19 -1 -145 0 -279
3 -199 4 -247 8 -261 20 -21 19 -54 19 -70 0 -14 -17 -56 -20 -65 -6 -3 5 -1
12 5 16 5 3 10 17 10 31 0 23 -3 25 -37 22 -33 -3 -39 -7 -47 -36 -9 -31 -12
-33 -42 -30 -26 3 -34 0 -38 -17 -11 -41 -7 -45 37 -43 23 1 63 -5 89 -12 39
-12 58 -12 107 -2 37 8 68 9 82 3 14 -5 34 -5 49 1 13 5 99 12 190 15 150 5
169 4 194 -12 20 -14 43 -18 88 -16 41 2 58 -1 53 -8 -3 -6 -34 -11 -69 -11
-34 0 -66 -4 -72 -10 -21 -21 -776 -40 -789 -19 -3 4 -12 6 -20 2 -9 -3 -15 1
-15 11 0 9 -8 16 -20 16 -27 0 -25 16 5 42 14 12 25 27 25 34 0 6 11 15 25 18
14 4 25 13 25 22 0 8 5 12 10 9 6 -4 10 7 10 24 0 21 5 31 15 31 11 0 14 7 9
25 -5 19 -2 25 10 25 9 0 13 6 10 15 -4 8 1 17 9 21 12 4 13 12 7 36 -7 24 -6
29 5 24 9 -3 19 6 27 25 7 16 19 27 25 24 7 -2 13 2 13 9 0 8 -7 16 -15 20
-20 7 -20 65 1 94 24 35 42 27 47 -20 l4 -43 1 43 c2 35 5 42 22 42 17 0 20 7
20 40 0 22 4 40 9 40 5 0 8 8 7 18 0 9 5 16 12 14 7 -1 12 8 12 23 0 14 5 25
10 25 6 0 10 7 10 15 0 9 7 18 15 21 9 4 14 14 13 23 -3 14 12 16 117 18 66 1
128 2 138 2 12 1 17 9 17 32 0 35 23 36 28 1 6 -40 32 -26 32 18 0 33 3 40 20
40 17 0 20 7 20 39 0 30 4 40 20 44 15 4 20 14 20 41 0 19 6 39 13 43 8 4 16
16 20 26 6 16 531 17 10824 17 5950 0 10916 3 11036 7 l217 6 0 379 0 378
-30670 0 -30670 0 0 -397z m41167 -1371 c11 -28 18 -32 50 -32 20 0 33 -3 30
-6 -4 -4 -120 -8 -259 -10 -139 -2 -380 -6 -535 -8 -297 -6 -321 -2 -272 37
19 16 32 18 69 12 25 -4 72 -9 105 -10 75 -3 602 -8 632 -6 13 0 34 14 48 30
22 24 33 28 73 26 42 -1 47 -5 59 -33z m-140 -140 c27 -15 100 -16 108 -2 3 6
21 10 38 9 l32 -1 -34 -12 c-20 -7 -38 -22 -43 -35 -7 -20 -13 -22 -39 -17
-17 3 -37 6 -44 6 -7 0 -15 10 -18 21 -5 18 -10 20 -34 14 -23 -7 -128 -10
-175 -6 -7 0 -30 -2 -50 -5 -31 -5 -38 -3 -38 10 0 17 40 31 69 23 10 -2 24
-1 31 3 19 12 172 5 197 -8z m-1654 -31 c16 -1 16 -3 1 -26 -26 -39 -10 -48
71 -42 94 7 121 -12 43 -30 -74 -17 -96 -16 -115 6 -12 15 -21 17 -39 11 -17
-7 -28 -5 -39 6 -23 23 -45 25 -320 29 -166 2 -254 0 -263 -7 -9 -8 -20 -7
-37 2 -14 8 -36 10 -57 6 -75 -15 -89 -14 -109 7 -10 11 -19 24 -19 28 0 5 26
9 58 11 50 3 778 2 825 -1z m-16953 -41 c0 -19 -7 -20 -205 -20 -198 0 -205 1
-205 20 0 19 7 20 205 20 198 0 205 -1 205 -20z m9313 -40 c75 -13 137 -26
137 -30 0 -4 -159 -7 -352 -8 -436 -2 -534 -7 -621 -35 l-67 -21 -63 23 c-55
20 -90 24 -302 31 -290 11 -434 20 -440 29 -4 7 125 28 215 35 25 2 340 2 700
1 635 -2 659 -2 793 -25z m-906 -118 c14 -9 -12 -107 -36 -136 -39 -47 -111
-59 -135 -24 -26 36 -19 54 34 93 28 20 50 41 50 46 0 20 64 35 87 21z m-4742
-53 c4 -12 4 -41 0 -65 -7 -49 -11 -46 75 -46 30 1 63 -1 73 -4 31 -10 18 -24
-23 -24 -26 0 -47 -7 -58 -18 -22 -22 -82 -37 -82 -21 0 8 -18 9 -54 5 -32 -4
-57 -3 -60 2 -19 31 47 72 73 45 7 -8 16 -11 19 -8 4 4 -1 11 -11 16 -23 13
-22 40 3 72 11 14 20 35 20 46 0 27 17 27 25 0z m2709 -438 c15 -17 15 -19 1
-25 -9 -3 -44 -6 -78 -6 -83 0 -99 -11 -68 -44 13 -13 20 -29 16 -35 -3 -6
-40 -11 -86 -11 -71 0 -80 2 -77 18 2 12 15 18 43 20 40 3 65 16 65 33 0 21
-54 28 -167 20 -116 -8 -153 -2 -153 24 0 6 84 11 231 12 128 1 234 5 237 8 9
9 18 6 36 -14z m301 -2 c4 -5 -1 -19 -11 -30 -18 -20 -17 -21 14 -45 18 -14
30 -30 27 -35 -10 -15 -211 -11 -224 5 -9 11 -3 18 36 37 26 13 57 22 68 21
13 -1 28 10 40 28 21 31 39 38 50 19z"/>
<path d="M25958 2043 c-79 -3 -88 -6 -88 -23 0 -19 -7 -20 -100 -20 -111 0
-121 -8 -75 -55 33 -32 94 -35 113 -5 14 22 42 26 60 8 9 -9 12 -9 12 0 0 8
24 12 80 12 73 0 80 2 80 20 0 15 7 20 25 20 18 0 25 -5 25 -20 0 -17 7 -20
40 -20 l40 0 0 40 c0 37 -2 40 -27 40 -16 0 -44 2 -63 3 -19 2 -74 2 -122 0z"/>
<path d="M48014 1988 c-4 -13 -11 -26 -17 -30 -17 -10 76 -25 107 -16 16 4 33
5 37 2 15 -9 10 -64 -6 -70 -8 -3 -17 -14 -20 -25 -6 -16 -16 -19 -80 -19 -41
0 -77 5 -80 10 -11 18 -25 10 -25 -14 0 -20 6 -25 38 -29 20 -3 55 -9 77 -14
46 -10 85 -6 85 8 0 6 13 24 29 40 34 34 72 38 101 9 16 -16 36 -20 116 -22
94 -3 97 -4 80 -21 -17 -17 -20 -17 -43 -1 -14 9 -28 12 -32 7 -15 -21 -68
-47 -93 -44 -20 2 -28 -2 -28 -13 0 -23 43 -20 64 3 17 19 25 19 113 9 30 -4
33 -2 39 29 6 30 9 33 44 33 25 0 40 -5 44 -15 4 -11 17 -15 43 -14 21 2 48
-4 61 -12 20 -13 27 -12 62 9 39 22 41 22 67 5 22 -15 51 -18 162 -19 174 -1
213 4 209 25 -4 21 -68 52 -93 45 -11 -3 -69 -8 -129 -10 -91 -3 -113 -1 -128
13 -15 13 -46 16 -186 18 -92 0 -175 5 -185 9 -12 6 -24 3 -35 -7 -10 -10 -23
-13 -32 -8 -8 5 -31 11 -51 15 -26 4 -45 18 -68 46 -18 22 -40 40 -49 40 -9 0
-30 7 -47 16 -19 10 -42 13 -65 9 -27 -5 -40 -2 -50 9 -17 22 -27 20 -36 -6z"/>
<path d="M24960 1940 c0 -13 -7 -20 -20 -20 -20 0 -26 -16 -12 -35 4 -7 43 -9
100 -7 78 3 94 7 103 23 5 10 16 19 24 19 8 0 15 9 15 20 0 19 -7 20 -105 20
-98 0 -105 -1 -105 -20z"/>
<path d="M49887 1869 c-7 -25 0 -67 14 -85 5 -6 8 -22 7 -35 -3 -21 1 -24 38
-27 30 -2 45 2 58 17 18 20 18 21 0 27 -58 18 -65 24 -62 51 4 33 46 47 100
33 29 -8 37 -16 40 -38 3 -24 8 -28 52 -34 28 -4 53 -5 58 -2 4 3 8 21 8 41 0
30 -3 34 -17 27 -33 -15 -97 -6 -113 16 -12 16 -26 20 -65 19 -28 -1 -64 2
-81 6 -27 6 -32 4 -37 -16z"/>
<path d="M50245 1860 c2 -4 19 -10 36 -14 40 -8 59 -23 59 -47 0 -18 12 -25
35 -19 6 2 47 3 92 4 61 2 87 6 101 19 24 22 28 21 52 -3 21 -21 83 -27 110
-10 10 6 23 4 40 -7 21 -14 65 -18 260 -23 l235 -5 22 25 c11 14 19 28 17 32
-2 4 -96 6 -207 5 -185 -2 -205 0 -232 17 -33 22 -109 26 -127 8 -17 -17 -70
-15 -95 3 -27 19 -141 11 -187 -12 -26 -13 -30 -13 -51 7 -18 17 -38 22 -94
25 -39 1 -69 -1 -66 -5z"/>
<path d="M23370 1815 c0 -18 -5 -25 -20 -25 -15 0 -20 -7 -20 -25 0 -14 5 -25
10 -25 6 0 10 -7 10 -15 0 -8 7 -15 15 -15 8 0 15 9 15 20 0 18 7 20 80 20 73
0 80 -2 80 -20 0 -17 7 -20 40 -20 33 0 40 3 40 20 0 13 7 20 19 20 12 0 20 9
23 25 4 21 1 25 -18 25 -19 0 -24 -5 -24 -25 0 -22 -4 -25 -40 -25 -36 0 -40
3 -40 25 0 18 -5 25 -20 25 -13 0 -20 7 -20 20 0 13 -7 20 -20 20 -13 0 -20
-7 -20 -20 0 -13 -7 -20 -20 -20 -13 0 -20 7 -20 20 0 15 -7 20 -25 20 -20 0
-25 -5 -25 -25z"/>
<path d="M25661 1823 c-1 -20 -7 -23 -41 -23 -36 0 -40 -2 -40 -25 0 -24 -3
-25 -60 -25 -55 0 -60 2 -61 23 l0 22 -9 -22 c-12 -30 -50 -40 -67 -17 -7 10
-13 12 -13 6 0 -7 -13 -12 -29 -12 -49 0 -91 -12 -91 -26 0 -10 -13 -14 -40
-14 -33 0 -40 3 -40 20 0 16 7 20 38 21 l37 2 -35 6 c-19 3 -36 3 -38 -1 -2
-5 -75 -8 -162 -8 -149 0 -159 -1 -165 -20 -3 -11 -18 -29 -32 -40 -29 -22
-93 -28 -93 -7 0 9 -2 9 -8 1 -4 -8 -43 -12 -107 -12 -189 0 -185 0 -185 -22
0 -13 -7 -20 -20 -20 -13 0 -20 7 -20 20 0 15 -7 20 -25 20 -18 0 -25 -5 -25
-20 0 -13 -7 -20 -20 -20 -13 0 -20 7 -20 20 0 17 -7 20 -40 20 -33 0 -40 -3
-40 -20 0 -17 -7 -20 -40 -20 -33 0 -40 3 -40 20 0 17 -7 20 -45 20 l-45 0 0
-40 0 -40 -40 0 c-22 0 -40 5 -40 11 0 6 -7 3 -16 -5 -13 -13 -30 -18 -64 -18
-3 0 -75 3 -161 6 l-155 7 -12 -26 c-7 -14 -12 -35 -12 -45 0 -16 -7 -20 -30
-20 -17 0 -39 -5 -49 -12 -15 -9 -26 -9 -47 0 -22 11 -35 10 -78 -5 l-51 -18
45 -3 c25 -2 138 -2 253 0 192 3 207 2 207 -14 0 -16 -11 -18 -88 -18 -57 0
-93 -4 -101 -12 -11 -10 -14 -10 -18 0 -3 8 -27 12 -70 12 -54 0 -64 -3 -59
-15 4 -10 -1 -15 -15 -15 -13 0 -19 5 -16 13 3 9 -34 12 -169 12 -96 0 -174
-4 -174 -9 0 -5 -25 -5 -57 -1 -32 4 -74 7 -93 7 -19 -1 -115 -1 -212 -1 -174
1 -178 0 -178 -20 0 -14 -6 -21 -20 -21 -13 0 -20 7 -20 20 0 17 -7 20 -40 20
-33 0 -40 -3 -40 -20 0 -18 -7 -20 -65 -20 -58 0 -65 2 -65 20 0 13 -7 20 -20
20 -13 0 -20 -7 -20 -20 0 -20 -7 -20 -375 -20 l-375 0 0 40 0 40 -65 0 c-63
0 -65 -1 -65 -26 0 -24 2 -26 34 -20 18 4 45 2 60 -4 21 -8 26 -16 26 -45 l0
-36 400 3 400 3 0 -22 c0 -18 -6 -23 -25 -23 -18 0 -25 -5 -25 -20 0 -19 7
-20 135 -20 128 0 135 1 135 20 0 18 -7 20 -85 20 -78 0 -85 2 -85 20 0 22 4
22 163 25 65 1 77 -1 77 -15 0 -19 19 -40 37 -40 8 0 13 12 13 30 0 28 2 30
40 30 36 0 40 -2 40 -25 0 -22 -4 -25 -35 -25 -28 0 -35 -4 -35 -20 0 -17 7
-20 50 -20 37 0 50 4 50 14 0 8 -4 18 -10 21 -13 8 -13 45 0 45 5 0 12 -11 16
-25 9 -38 44 -34 44 6 0 26 3 30 23 27 29 -4 38 -48 9 -48 -19 0 -32 -24 -32
-62 0 -15 10 -18 65 -18 52 0 65 3 65 16 0 35 28 46 118 48 l87 1 -3 33 c-3
29 -1 32 23 32 25 0 27 -3 23 -30 -3 -22 0 -31 14 -36 10 -3 18 -10 18 -15 0
-5 41 -9 90 -9 100 0 130 15 130 65 l0 25 118 0 c73 0 122 4 129 11 14 14 32
4 43 -27 5 -13 17 -24 27 -24 24 1 53 24 53 42 0 29 110 39 136 13 10 -10 35
-15 69 -15 36 0 53 -4 52 -12 -1 -36 4 -58 14 -58 5 0 9 10 7 22 -3 20 5 25
52 41 30 10 63 16 73 13 9 -2 17 0 17 5 0 5 27 9 60 9 33 0 60 -4 60 -10 0 -5
20 -10 45 -10 25 0 45 4 45 9 0 15 71 19 77 4 3 -7 14 -13 24 -13 13 0 19 -7
20 -22 0 -21 1 -21 8 -4 6 17 21 18 167 20 l159 1 3 24 c4 23 6 23 60 16 72
-9 10 -9 709 -4 l603 4 0 23 c0 15 -6 22 -20 22 -13 0 -20 7 -20 20 0 13 -7
20 -20 20 -13 0 -20 -7 -20 -20 0 -15 -7 -20 -25 -20 -18 0 -25 5 -25 20 0 19
-7 20 -205 20 -198 0 -205 -1 -205 -20 0 -26 -40 -28 -47 -2 -3 15 -14 18 -66
16 -134 -3 -137 -4 -137 -19 0 -9 -9 -15 -25 -15 -18 0 -25 5 -25 20 0 15 7
20 25 20 17 0 25 5 24 18 0 10 -3 12 -6 5 -7 -19 -31 -16 -36 5 -4 13 -5 11
-6 -5 -1 -22 -4 -23 -101 -23 -93 0 -100 -1 -100 -20 0 -15 -7 -20 -25 -20
-18 0 -25 5 -25 20 0 17 -7 20 -40 20 -27 0 -40 -4 -40 -14 0 -9 -25 -15 -93
-20 -114 -8 -157 -1 -157 25 0 16 -8 19 -54 19 -36 0 -58 -5 -66 -15 -7 -9
-19 -14 -27 -11 -7 3 -13 2 -13 -3 0 -14 -70 -23 -85 -11 -8 7 -15 7 -19 1 -8
-12 -156 -2 -173 12 -9 6 -13 6 -13 -2 0 -6 -11 -11 -25 -11 -14 0 -25 5 -25
12 0 6 -6 4 -13 -7 -17 -22 -72 -15 -93 13 -13 16 -13 16 -14 0 0 -26 -40 -24
-40 2 0 11 7 20 15 20 8 0 15 4 15 9 0 5 15 19 34 30 31 20 48 21 264 21 242
0 231 -2 270 45 10 12 29 14 103 8 83 -6 92 -4 120 16 28 21 32 22 55 7 13 -9
24 -20 24 -25 0 -16 49 2 55 20 8 26 24 24 35 -3 8 -22 9 -22 9 5 1 26 2 27
61 27 46 0 62 4 67 16 3 8 12 13 19 10 8 -3 14 -1 14 4 0 6 20 10 45 10 38 0
45 3 45 20 0 18 7 20 80 20 73 0 80 2 80 20 0 18 7 20 65 20 57 0 65 2 65 19
0 10 -9 21 -19 24 -11 2 -21 15 -24 28 -4 24 -4 24 -6 2z"/>
<path d="M23148 1793 c-20 -3 -28 -10 -28 -24 0 -17 -8 -19 -100 -19 -93 0
-100 -1 -100 -20 0 -18 7 -20 61 -20 33 0 69 -5 80 -10 13 -7 19 -7 19 0 0 5
20 10 45 10 38 0 45 3 45 20 0 17 7 20 40 20 33 0 40 -3 40 -20 0 -16 7 -20
31 -20 24 0 30 4 27 18 -2 10 -14 18 -31 20 -21 3 -27 9 -27 28 0 21 -4 24
-37 23 -21 -1 -50 -4 -65 -6z"/>
<path d="M22290 1730 c0 -17 7 -20 40 -20 40 0 40 0 40 -39 l0 -39 120 1 c85
0 120 4 124 13 2 7 20 15 38 19 45 10 58 22 58 56 l0 29 -210 0 c-203 0 -210
-1 -210 -20z"/>
<path d="M51532 1467 c-12 -7 -19 -16 -16 -20 4 -4 -13 -7 -39 -7 -48 0 -47 1
-61 -62 -4 -16 -12 -28 -19 -28 -7 0 -23 -8 -36 -17 l-24 -16 22 -9 c26 -9 61
6 61 27 0 25 58 18 92 -10 30 -25 62 -32 72 -16 9 14 -4 40 -23 46 -10 3 -24
17 -31 30 -20 38 6 60 70 60 26 0 52 3 56 8 4 4 14 7 22 7 12 0 14 -10 9 -50
l-6 -50 35 0 c19 0 49 -7 66 -16 28 -15 34 -15 70 2 34 15 44 16 71 5 56 -23
74 -24 81 -6 9 26 -12 45 -50 45 -18 0 -36 5 -40 11 -3 6 -14 9 -25 6 -13 -4
-19 2 -21 22 -3 23 -7 26 -43 26 -53 0 -55 -26 -2 -39 20 -5 37 -13 37 -17 0
-10 -59 -20 -85 -13 -21 5 -22 9 -13 30 19 41 -4 53 -112 59 -68 4 -101 1
-118 -8z"/>
<path d="M32595 1305 c-3 -8 -7 -22 -10 -30 -5 -17 -31 -20 -40 -5 -3 6 -49
10 -104 10 -70 0 -103 4 -117 15 -15 11 -56 14 -197 15 -153 0 -178 -2 -184
-16 -5 -13 -21 -15 -87 -13 -158 4 -210 -17 -204 -83 2 -26 8 -34 27 -36 46
-7 70 6 73 41 l3 32 73 1 c62 0 75 -2 83 -19 9 -15 18 -18 47 -13 96 17 94 16
90 47 -5 35 1 37 79 31 l62 -4 -2 -34 c-2 -34 -10 -43 -22 -24 -3 6 -14 10
-23 10 -15 0 -15 -2 -2 -10 10 -6 11 -10 3 -10 -7 0 -13 -6 -13 -12 0 -9 -25
-14 -82 -16 -86 -3 -104 -10 -111 -45 -3 -19 -5 -18 -16 11 -11 28 -17 32 -51
32 -28 0 -42 -6 -53 -22 -12 -19 -18 -21 -28 -11 -10 10 -17 9 -35 -8 -23 -21
-64 -23 -106 -4 -27 11 -24 -41 2 -57 28 -18 25 -38 -5 -38 -21 0 -29 9 -44
44 -23 52 -32 56 -121 56 -100 0 -118 -9 -122 -62 -3 -41 -5 -43 -31 -40 -16
2 -27 -1 -24 -5 4 -7 191 -7 267 0 22 2 25 -3 28 -31 2 -18 10 -36 18 -39 19
-7 54 25 54 49 0 11 11 23 28 29 15 6 37 22 49 37 21 27 21 27 42 8 29 -26 26
-36 -9 -36 -36 0 -50 -24 -27 -47 20 -21 46 -10 58 25 14 42 52 41 65 -1 9
-31 11 -32 65 -35 88 -5 153 9 157 34 2 11 12 25 22 32 17 10 23 9 40 -8 24
-24 29 -24 57 -5 14 10 34 13 61 9 24 -3 43 -1 47 5 8 14 52 14 60 1 4 -7 12
-7 25 0 27 15 81 12 114 -5 27 -14 31 -14 51 5 25 23 48 26 63 7 9 -10 1 -23
-32 -56 l-44 -43 -66 7 c-63 7 -66 6 -66 -14 0 -14 -9 -25 -27 -32 -50 -19
-52 -59 -4 -59 15 0 32 -5 38 -11 16 -16 226 -23 252 -9 12 6 21 20 21 30 0
11 1 20 3 20 1 0 24 -7 51 -15 67 -20 77 -19 72 8 -3 12 -5 25 -5 30 -1 4 -23
7 -50 7 -34 0 -51 4 -55 15 -6 17 -61 21 -71 5 -3 -5 0 -19 7 -30 11 -17 11
-22 -2 -30 -12 -7 -67 -4 -78 6 -12 9 15 46 50 70 l41 29 154 -4 c148 -3 153
-3 153 17 0 15 -10 24 -36 32 -27 9 -33 15 -23 21 23 14 64 10 110 -11 48 -22
96 -25 143 -10 17 5 44 12 59 15 25 5 27 8 16 21 -10 13 -10 17 0 24 17 10 47
2 62 -16 13 -15 65 -19 73 -5 3 4 2 28 -2 52 -6 37 -12 45 -32 47 -54 8 -58
28 -19 105 l19 37 -240 0 c-132 0 -240 -2 -240 -6 0 -3 14 -10 30 -15 35 -13
39 -34 10 -49 -17 -9 -25 -6 -46 17 -24 26 -27 27 -125 24 -82 -2 -100 0 -105
13 -8 20 -33 21 -39 1z m531 -20 c7 -28 31 -34 40 -10 4 8 10 15 14 15 13 0
68 -58 62 -65 -3 -3 -32 -5 -64 -5 -45 0 -58 3 -58 15 0 20 -76 21 -83 1 -8
-21 17 -38 46 -31 33 9 42 -9 16 -33 -31 -29 -56 -32 -83 -11 -13 10 -38 19
-54 19 -17 0 -33 4 -36 9 -10 16 5 41 24 41 11 0 22 5 25 10 3 6 2 10 -4 10
-6 0 -8 7 -4 16 5 14 8 15 17 3 17 -22 46 -23 46 -1 0 27 20 42 57 42 26 0 34
-5 39 -25z m-581 -62 c9 -11 43 -15 160 -16 131 -2 150 -4 153 -19 4 -21 -31
-33 -56 -19 -11 6 -79 10 -151 10 -100 0 -138 3 -155 14 -12 9 -33 17 -46 19
-28 4 -38 25 -13 30 34 6 98 -5 108 -19z"/>
<path d="M33420 1313 c65 -21 81 -52 28 -54 -18 -1 -39 -1 -45 0 -19 3 -16
-56 6 -114 23 -62 49 -73 182 -76 85 -2 94 0 111 21 35 43 21 70 -37 74 -14 0
-25 4 -25 9 0 19 -38 4 -49 -19 -11 -25 -12 -26 -31 -9 -11 10 -17 22 -14 26
3 5 -1 9 -8 10 -67 4 -76 10 -60 42 6 12 14 32 17 45 5 18 9 21 21 11 7 -6 11
-15 9 -20 -7 -11 57 -29 69 -19 4 5 3 24 -4 44 l-12 36 -86 -1 c-48 0 -80 -3
-72 -6z"/>
<path d="M34307 1300 c-4 -17 -15 -20 -103 -22 -95 -3 -99 -4 -98 -25 0 -18
-5 -23 -26 -23 -36 0 -57 -24 -40 -45 9 -10 31 -15 74 -15 76 0 94 10 66 35
-28 26 -25 35 13 35 21 0 41 -8 51 -19 29 -32 66 -16 66 30 0 19 5 29 15 29 8
0 15 9 15 20 0 26 -26 26 -33 0z"/>
<path d="M52591 1213 l-22 -27 28 -25 c24 -23 28 -24 31 -8 3 14 14 17 63 17
52 0 59 2 59 20 0 13 7 20 20 20 13 0 20 -7 20 -20 0 -15 7 -20 25 -20 18 0
25 5 25 20 0 12 7 20 16 20 9 0 14 6 12 13 -3 8 -41 13 -130 15 l-126 3 -21
-28z"/>
<path d="M31203 1197 c-18 -10 -33 -25 -33 -32 0 -7 -6 -18 -14 -24 -20 -17
-66 3 -66 29 0 22 -22 27 -38 8 -5 -7 -13 -32 -17 -55 l-7 -42 45 -6 c27 -4
60 -2 81 5 55 18 102 -15 56 -40 -11 -6 -20 -15 -20 -20 0 -16 39 -12 71 7 32
19 37 38 14 47 -8 3 -15 14 -15 24 0 10 -11 24 -25 30 -30 14 -32 35 -5 53 34
24 9 38 -27 16z"/>
<path d="M32272 1022 c-49 -3 -54 -6 -64 -33 -12 -36 -35 -38 -48 -3 -11 29
-34 28 -38 -3 -2 -14 4 -22 17 -26 29 -7 26 -25 -4 -33 -18 -5 -30 -1 -43 15
-9 12 -34 24 -54 28 -34 5 -38 3 -43 -20 -10 -40 1 -48 58 -42 48 6 50 5 33
-9 -10 -8 -23 -17 -29 -19 -6 -2 -7 -9 -3 -15 9 -14 52 -16 61 -2 3 5 21 17
40 26 25 12 38 13 54 5 11 -6 24 -11 30 -11 17 0 13 31 -6 47 -16 12 -14 13
22 11 34 -3 40 -7 43 -28 4 -26 27 -50 49 -50 7 0 13 5 13 10 0 6 -7 10 -15
10 -26 0 -17 39 14 54 34 18 41 33 30 62 -8 24 -37 31 -117 26z"/>
<path d="M29830 916 c-31 -39 -100 -46 -100 -11 0 12 -21 15 -125 15 -112 0
-125 -2 -125 -17 0 -10 17 -31 38 -48 l37 -30 245 -3 c154 -2 249 -7 257 -14
7 -6 14 -22 14 -37 2 -23 2 -24 6 -3 3 14 12 22 24 22 13 0 19 -7 20 -22 1
-17 2 -19 6 -5 2 9 11 17 18 17 7 0 16 -8 18 -17 4 -14 5 -12 6 5 1 19 7 22
41 22 22 0 40 -4 40 -10 0 -5 7 -7 15 -4 8 4 17 -1 21 -10 9 -24 44 -20 44 4
0 17 7 20 45 20 32 0 45 4 45 14 0 24 -27 38 -60 31 -22 -5 -39 -1 -65 15 -26
16 -48 21 -92 19 -32 -1 -71 3 -86 9 -16 7 -54 12 -84 12 -38 0 -62 5 -75 16
-26 25 -110 31 -128 10z"/>
<path d="M31127 907 c-12 -4 -52 -7 -90 -6 -76 2 -95 -7 -78 -40 16 -29 56
-27 76 3 13 20 24 24 68 24 32 0 68 -7 95 -20 55 -26 114 -28 139 -5 11 9 29
17 41 17 12 0 26 8 31 18 8 16 0 17 -126 17 -74 0 -144 -4 -156 -8z"/>
</g>
</svg>
